<svg fill="#FFFFFF" viewBox="100 70 312 372" xmlns="http://www.w3.org/2000/svg">
  <path d="M359.27 197.32A144.8 144.8 0 0 0 311 164.75v-1.84a55.16 55.16 0 0 0-25.55-46.56 55.5 55.5 0 0 1 11.26-10.48 17.49 17.49 0 1 0-8.9-15.23 18 18 0 0 0 .27 3A67.6 67.6 0 0 0 271.53 110a55.06 55.06 0 0 0-28.31-.83 68.2 68.2 0 0 0-15.94-15.56 18 18 0 0 0 .26-3 17.51 17.51 0 1 0-8.89 15.23 56.6 56.6 0 0 1 10 9 55.17 55.17 0 0 0-28.07 48.08c0 .65 0 1.29.05 1.93A145.6 145.6 0 0 0 154.87 195a145.41 145.41 0 0 0 47.77 239.37A21.66 21.66 0 0 0 232 417.71l2.22-13.71a107.3 107.3 0 0 0 43.28 0l2.17 13.34A21.66 21.66 0 0 0 309 434a145.08 145.08 0 0 0 50.29-236.64Zm1 173.94a126.94 126.94 0 0 1-57.91 45.95 3.57 3.57 0 0 1-3.13-.22 3.61 3.61 0 0 1-1.82-2.6l-4.39-27a21.8 21.8 0 0 0-6.79-41.72L269.35 241.8a13.52 13.52 0 0 0-13.55-11.53 13.51 13.51 0 0 0-13.55 11.55l-16.83 103.85a21.79 21.79 0 0 0-6.76 41.75l-4.44 27.41a3.66 3.66 0 0 1-4.95 2.82 127.34 127.34 0 0 1 46.52-245.74h2.44a127.07 127.07 0 0 1 102.06 199.35Z"/>
  <path d="M205.45 202.57a21.8 21.8 0 1 0 21.8 21.8 21.8 21.8 0 0 0-21.8-21.8m-32.21 81.93A21.8 21.8 0 1 0 195 306.3a21.8 21.8 0 0 0-21.76-21.8"/>
  <circle cx="306.18" cy="224.37" r="21.8" transform="rotate(-1.91 305.599 224.119)"/>
  <path d="M338.39 284.5a21.8 21.8 0 1 0 21.8 21.8 21.8 21.8 0 0 0-21.8-21.8"/>
</svg>

